<svg xmlns="http://www.w3.org/2000/svg" xmlns:xlink="http://www.w3.org/1999/xlink" width="500" zoomAndPan="magnify" viewBox="0 0 375 374.999991" height="500" preserveAspectRatio="xMidYMid meet" version="1.0"><defs><clipPath id="a1c2262d98"><path d="M 21.191406 59.726562 L 241.867188 59.726562 L 241.867188 280.402344 L 21.191406 280.402344 Z M 21.191406 59.726562 " clip-rule="nonzero"/></clipPath><clipPath id="61e2c083df"><path d="M 131.527344 59.726562 C 70.589844 59.726562 21.191406 109.125 21.191406 170.066406 C 21.191406 231.003906 70.589844 280.402344 131.527344 280.402344 C 192.46875 280.402344 241.867188 231.003906 241.867188 170.066406 C 241.867188 109.125 192.46875 59.726562 131.527344 59.726562 Z M 131.527344 59.726562 " clip-rule="nonzero"/></clipPath><clipPath id="832acbaada"><path d="M 151.09375 190.746094 L 275.621094 190.746094 L 275.621094 315.273438 L 151.09375 315.273438 Z M 151.09375 190.746094 " clip-rule="nonzero"/></clipPath><clipPath id="2107f5460e"><path d="M 213.359375 190.746094 C 178.972656 190.746094 151.09375 218.625 151.09375 253.011719 C 151.09375 287.398438 178.972656 315.273438 213.359375 315.273438 C 247.746094 315.273438 275.621094 287.398438 275.621094 253.011719 C 275.621094 218.625 247.746094 190.746094 213.359375 190.746094 Z M 213.359375 190.746094 " clip-rule="nonzero"/></clipPath><clipPath id="a8ee129b6e"><path d="M 291.894531 128.832031 L 353.808594 128.832031 L 353.808594 190.746094 L 291.894531 190.746094 Z M 291.894531 128.832031 " clip-rule="nonzero"/></clipPath><clipPath id="47dfcec355"><path d="M 322.851562 128.832031 C 305.753906 128.832031 291.894531 142.691406 291.894531 159.789062 C 291.894531 176.886719 305.753906 190.746094 322.851562 190.746094 C 339.949219 190.746094 353.808594 176.886719 353.808594 159.789062 C 353.808594 142.691406 339.949219 128.832031 322.851562 128.832031 Z M 322.851562 128.832031 " clip-rule="nonzero"/></clipPath></defs><g clip-path="url(#a1c2262d98)"><g clip-path="url(#61e2c083df)"><path fill="#ffde59" d="M 21.191406 59.726562 L 241.867188 59.726562 L 241.867188 280.402344 L 21.191406 280.402344 Z M 21.191406 59.726562 " fill-opacity="1" fill-rule="nonzero"/></g></g><g clip-path="url(#832acbaada)"><g clip-path="url(#2107f5460e)"><path fill="#00bf63" d="M 151.09375 190.746094 L 275.621094 190.746094 L 275.621094 315.273438 L 151.09375 315.273438 Z M 151.09375 190.746094 " fill-opacity="1" fill-rule="nonzero"/></g></g><g clip-path="url(#a8ee129b6e)"><g clip-path="url(#47dfcec355)"><path fill="#5e17eb" d="M 291.894531 128.832031 L 353.808594 128.832031 L 353.808594 190.746094 L 291.894531 190.746094 Z M 291.894531 128.832031 " fill-opacity="1" fill-rule="nonzero"/></g></g></svg>