<svg
    width="99"
    height="99"
    viewBox="0 0 99 99"
    fill="none"
    xmlns="http://www.w3.org/2000/svg"
>
    <path
        d="M0 99L6.95886 73.5776C2.66474 66.1361 0.408374 57.7005 0.412499 49.0504C0.424874 22.0069 22.4317 0 49.471 0C62.5926 0.004125 74.9098 5.115 84.1746 14.388C93.4352 23.661 98.5337 35.9865 98.5295 49.0958C98.5172 76.1434 76.5103 98.1503 49.471 98.1503C41.2623 98.1461 33.1732 96.0878 26.0081 92.1773L0 99ZM27.2126 83.2961C34.126 87.4005 40.726 89.859 49.4545 89.8631C71.9275 89.8631 90.2342 71.5729 90.2466 49.0875C90.2548 26.5567 72.0347 8.29125 49.4875 8.283C26.9981 8.283 8.70373 26.5733 8.69548 49.0545C8.69136 58.2326 11.3808 65.1049 15.8977 72.2947L11.7768 87.3428L27.2126 83.2961ZM74.1838 60.7571C73.8786 60.2456 73.0618 59.9404 71.8326 59.3257C70.6075 58.7111 64.5809 55.7453 63.4547 55.3369C62.3327 54.9285 61.516 54.7223 60.6951 55.9515C59.8784 57.1766 57.5271 59.9404 56.8135 60.7571C56.0999 61.5739 55.3821 61.677 54.157 61.0624C52.9319 60.4478 48.9801 59.1566 44.2983 54.978C40.6559 51.7275 38.1933 47.7139 37.4797 46.4846C36.766 45.2595 37.4054 44.5954 38.0159 43.9849C38.5687 43.4362 39.241 42.5535 39.8557 41.8358C40.4785 41.1263 40.6807 40.6147 41.0932 39.7939C41.5015 38.9771 41.2994 38.2594 40.99 37.6448C40.6807 37.0343 38.2304 30.9994 37.2115 28.545C36.2133 26.1566 35.2027 26.4784 34.4519 26.4412L32.1007 26.4C31.2839 26.4 29.9557 26.7052 28.8337 27.9345C27.7117 29.1637 24.5437 32.1255 24.5437 38.1604C24.5437 44.1953 28.9368 50.0239 29.5473 50.8406C30.1619 51.6574 38.1892 64.0406 50.4858 69.3495C53.4104 70.6117 55.6956 71.3666 57.4735 71.9317C60.4105 72.864 63.0835 72.732 65.1955 72.4185C67.5508 72.0679 72.4472 69.4526 73.4702 66.5899C74.4932 63.723 74.4932 61.2686 74.1838 60.7571Z"
        fill="#25D366"></path>
</svg>
