<?xml version="1.0" encoding="UTF-8"?>
<!DOCTYPE svg PUBLIC "-//W3C//DTD SVG 1.1//EN" "http://www.w3.org/Graphics/SVG/1.1/DTD/svg11.dtd">
<svg xmlns="http://www.w3.org/2000/svg" version="1.1" width="500px" height="500px" style="shape-rendering:geometricPrecision; text-rendering:geometricPrecision; image-rendering:optimizeQuality; fill-rule:evenodd; clip-rule:evenodd" xmlns:xlink="http://www.w3.org/1999/xlink">
<g><path style="opacity:1" fill="#fedd59" d="M -0.5,-0.5 C 166.167,-0.5 332.833,-0.5 499.5,-0.5C 499.5,166.167 499.5,332.833 499.5,499.5C 332.833,499.5 166.167,499.5 -0.5,499.5C -0.5,332.833 -0.5,166.167 -0.5,-0.5 Z"/></g>
<g><path style="opacity:1" fill="#fefefe" d="M 317.5,260.5 C 279.822,246.712 247.322,254.379 220,283.5C 200.044,309.765 195.878,338.432 207.5,369.5C 149.041,380.404 100.208,363.737 61,319.5C 27.9892,275.443 19.9892,227.11 37,174.5C 59.5609,120.611 99.7275,89.1113 157.5,80C 217.729,75.8702 264.896,98.3702 299,147.5C 320.737,182.588 326.903,220.254 317.5,260.5 Z"/></g>
<g><path style="opacity:1" fill="#5f18ea" d="M 421.5,171.5 C 445.232,169.442 461.399,179.442 470,201.5C 474.643,228.063 464.143,245.23 438.5,253C 413.272,256.151 397.105,245.651 390,221.5C 387.101,196.282 397.601,179.615 421.5,171.5 Z"/></g>
<g><path style="opacity:1" fill="#03bf63" d="M 317.5,260.5 C 353.481,279.113 369.647,308.78 366,349.5C 358.167,388 335,411.167 296.5,419C 262.356,422.838 235.189,411.004 215,383.5C 212.233,378.965 209.733,374.299 207.5,369.5C 195.878,338.432 200.044,309.765 220,283.5C 247.322,254.379 279.822,246.712 317.5,260.5 Z"/></g>
</svg>
